<svg width="24" height="24" viewBox="0 0 24 24" fill="none" xmlns="http://www.w3.org/2000/svg">
<path d="M1.99994 22.7499C1.80994 22.7499 1.61994 22.6799 1.46994 22.5299C1.17994 22.2399 1.17994 21.7599 1.46994 21.4699L21.4699 1.46994C21.7599 1.17994 22.2399 1.17994 22.5299 1.46994C22.8199 1.75994 22.8199 2.23994 22.5299 2.52994L2.52994 22.5299C2.37994 22.6799 2.18994 22.7499 1.99994 22.7499Z" fill="#292D32"/>
<path d="M18.8799 22.75C18.3199 22.75 17.7199 22.58 17.1199 22.25L10.5999 18.18C10.2499 17.96 10.1399 17.5 10.3599 17.15C10.5799 16.8 11.0399 16.69 11.3899 16.91L17.8799 20.96C18.4399 21.27 18.9999 21.34 19.3599 21.13C19.7199 20.92 19.9299 20.4 19.9299 19.71V8.70996C19.9299 8.29996 20.2699 7.95996 20.6799 7.95996C21.0899 7.95996 21.4299 8.29996 21.4299 8.70996V19.71C21.4299 20.94 20.9499 21.93 20.1199 22.42C19.7499 22.64 19.3299 22.75 18.8799 22.75Z" fill="#292D32"/>
<path d="M3.32007 20.7C2.91007 20.7 2.57007 20.36 2.57007 19.95V5.86C2.57007 3.32 4.64007 1.25 7.18007 1.25H16.8301C18.2201 1.25 19.5301 1.87 20.4101 2.96C20.6701 3.28 20.6201 3.75 20.3001 4.02C19.9801 4.28 19.5101 4.23 19.2501 3.91C18.6501 3.17 17.7701 2.75 16.8301 2.75H7.18007C5.47007 2.75 4.07007 4.15 4.07007 5.86V19.95C4.07007 20.36 3.73007 20.7 3.32007 20.7Z" fill="#292D32"/>
</svg>
