<svg width="24" height="24" viewBox="0 0 24 24" fill="none" xmlns="http://www.w3.org/2000/svg">
<path d="M14.5 11.3999H9.5C9.09 11.3999 8.75 11.0599 8.75 10.6499C8.75 10.2399 9.09 9.8999 9.5 9.8999H14.5C14.91 9.8999 15.25 10.2399 15.25 10.6499C15.25 11.0599 14.91 11.3999 14.5 11.3999Z" fill="#292D32"/>
<path d="M12 13.96C11.59 13.96 11.25 13.62 11.25 13.21V8.20996C11.25 7.79996 11.59 7.45996 12 7.45996C12.41 7.45996 12.75 7.79996 12.75 8.20996V13.21C12.75 13.62 12.41 13.96 12 13.96Z" fill="#292D32"/>
<path d="M19.0701 22.75C18.5601 22.75 18.0001 22.6 17.4601 22.29L12.5801 19.58C12.2901 19.42 11.7201 19.42 11.4301 19.58L6.55007 22.29C5.56007 22.84 4.55007 22.9 3.78007 22.44C3.01007 21.99 2.57007 21.08 2.57007 19.95V5.86C2.57007 3.32 4.64007 1.25 7.18007 1.25H16.8301C19.3701 1.25 21.4401 3.32 21.4401 5.86V19.95C21.4401 21.08 21.0001 21.99 20.2301 22.44C19.8801 22.65 19.4801 22.75 19.0701 22.75ZM12.0001 17.96C12.4701 17.96 12.9301 18.06 13.3001 18.27L18.1801 20.98C18.6901 21.27 19.1601 21.33 19.4601 21.15C19.7601 20.97 19.9301 20.54 19.9301 19.95V5.86C19.9301 4.15 18.5301 2.75 16.8201 2.75H7.18007C5.47007 2.75 4.07007 4.15 4.07007 5.86V19.95C4.07007 20.54 4.24007 20.98 4.54007 21.15C4.84007 21.32 5.31007 21.27 5.82007 20.98L10.7001 18.27C11.0701 18.06 11.5301 17.96 12.0001 17.96Z" fill="#292D32"/>
</svg>
