<svg width="24" height="24" viewBox="0 0 24 24" fill="none" xmlns="http://www.w3.org/2000/svg">
<path d="M9 10.75H6C5.59 10.75 5.25 10.41 5.25 10C5.25 9.59 5.59 9.25 6 9.25H9C9.41 9.25 9.75 9.59 9.75 10C9.75 10.41 9.41 10.75 9 10.75Z" fill="#292D32"/>
<path d="M17.24 22.75H6.76001C6.35001 22.75 6.01001 22.41 6.01001 22C6.01001 21.59 6.35001 21.25 6.76001 21.25H17.24C19.26 21.25 20.35 20.22 20.48 18.2L21 9.93998C21.05 9.22998 20.84 8.52998 20.41 7.95998C20.16 7.62998 20.23 7.15998 20.56 6.90998C20.89 6.65998 21.36 6.72998 21.61 7.05998C22.25 7.91998 22.57 8.96998 22.5 10.04L21.98 18.3C21.8 21.13 20.07 22.75 17.24 22.75Z" fill="#292D32"/>
<path d="M3.44005 21.21C3.20005 21.21 2.96005 21.09 2.81005 20.87C2.35005 20.17 2.08005 19.3 2.02005 18.29L1.50005 10.04C1.42005 8.79 1.85005 7.59 2.71005 6.68C3.56005 5.77 4.76005 5.25 6.00005 5.25C6.32005 5.25 6.63005 5.06 6.78005 4.76L7.50005 3.33C8.09005 2.16 9.57005 1.25 10.8601 1.25H13.1501C14.4401 1.25 15.9101 2.16 16.5001 3.32L17.2201 4.78C17.3701 5.06 17.6701 5.25 18.0001 5.25C18.4101 5.25 18.7501 5.59 18.7501 6C18.7501 6.41 18.4101 6.75 18.0001 6.75C17.1101 6.75 16.3001 6.25 15.8801 5.46L15.1501 4C14.8201 3.34 13.8801 2.76 13.1401 2.76H10.8501C10.1101 2.76 9.17005 3.34 8.83005 4.01L8.12005 5.44C7.70005 6.25 6.89005 6.75 6.00005 6.75C5.16005 6.75 4.38005 7.09 3.80005 7.7C3.23005 8.31 2.94005 9.11 3.00005 9.94L3.52005 18.2C3.56005 18.93 3.75005 19.57 4.07005 20.04C4.30005 20.39 4.20005 20.85 3.86005 21.08C3.73005 21.17 3.58005 21.21 3.44005 21.21Z" fill="#292D32"/>
<path d="M12 18.75C11.11 18.75 10.24 18.45 9.54005 17.9C9.21005 17.64 9.16005 17.17 9.41005 16.85C9.67005 16.52 10.14 16.47 10.46 16.72C10.9 17.06 11.44 17.25 12 17.25C13.38 17.25 14.5 16.13 14.5 14.75C14.5 14.27 14.37 13.81 14.12 13.42C13.9 13.07 14 12.61 14.35 12.38C14.7 12.16 15.16 12.26 15.39 12.61C15.79 13.24 16.01 13.98 16.01 14.74C16 16.96 14.21 18.75 12 18.75Z" fill="#292D32"/>
<path d="M1.99994 22.75C1.80994 22.75 1.61994 22.68 1.46994 22.53C1.17994 22.24 1.17994 21.76 1.46994 21.47L21.4699 1.47C21.7599 1.18 22.2399 1.18 22.5299 1.47C22.8199 1.76 22.8199 2.24 22.5299 2.53L2.52994 22.53C2.37994 22.68 2.18994 22.75 1.99994 22.75Z" fill="#292D32"/>
</svg>
