<svg width="24" height="24" viewBox="0 0 24 24" fill="none" xmlns="http://www.w3.org/2000/svg">
<path d="M12.0001 8.91002C11.5101 8.91002 11.0301 8.73002 10.6601 8.36002L7.99013 5.69002C7.45013 5.15002 7.28016 4.34001 7.58016 3.62001C7.87016 2.91001 8.56016 2.45001 9.33016 2.45001H14.6801C15.4501 2.45001 16.1401 2.91001 16.4301 3.62001C16.7201 4.33001 16.5602 5.14002 16.0202 5.69002L13.3501 8.36002C12.9701 8.72002 12.4901 8.91002 12.0001 8.91002ZM9.05013 4.62001L11.7201 7.29001C11.8701 7.44001 12.1202 7.44001 12.2802 7.29001L14.9502 4.62001C15.1202 4.45001 15.0702 4.26002 15.0302 4.19002C14.9902 4.12002 14.9001 3.95001 14.6701 3.95001H9.32015C9.08015 3.95001 8.99016 4.12002 8.96016 4.19002C8.93016 4.26002 8.88013 4.45001 9.05013 4.62001Z" fill="#292D32"/>
<path d="M14.6701 21.56H9.3201C8.5501 21.56 7.8601 21.1 7.5701 20.39C7.2801 19.68 7.44007 18.87 7.98007 18.32L10.6501 15.65C11.3701 14.93 12.6101 14.93 13.3301 15.65L16.0001 18.32C16.5401 18.86 16.7101 19.68 16.4101 20.39C16.1301 21.1 15.4401 21.56 14.6701 21.56ZM9.05008 19.38C8.88008 19.55 8.93006 19.74 8.97006 19.81C9.01006 19.88 9.10011 20.05 9.33011 20.05H14.6801C14.9201 20.05 15.0101 19.88 15.0401 19.81C15.0701 19.74 15.1201 19.55 14.9601 19.38L12.2901 16.71C12.1401 16.56 11.8901 16.56 11.7301 16.71L9.05008 19.38Z" fill="#292D32"/>
<path d="M5.22989 17.25C5.16989 17.25 5.09994 17.25 5.02994 17.24C4.48994 17.18 4.01989 16.89 3.72989 16.43L1.51993 12.95C1.14993 12.37 1.14993 11.63 1.51993 11.05L3.72989 7.57C4.01989 7.12 4.48994 6.81999 5.02994 6.75999C5.55994 6.69999 6.08988 6.89 6.46988 7.27L9.94992 10.75C10.2799 11.08 10.4699 11.53 10.4699 12C10.4699 12.47 10.2899 12.92 9.94992 13.25L6.47989 16.73C6.14989 17.06 5.69989 17.25 5.22989 17.25ZM2.78989 11.86C2.72989 11.95 2.72989 12.06 2.78989 12.15L4.99991 15.63C5.05991 15.72 5.14992 15.75 5.19992 15.75C5.24992 15.75 5.3399 15.75 5.4199 15.67L8.89994 12.19C8.96994 12.12 8.97989 12.04 8.97989 12C8.97989 11.96 8.96994 11.88 8.89994 11.81L5.4199 8.33C5.3399 8.25 5.24992 8.25 5.19992 8.25C5.14992 8.26 5.05991 8.27999 4.99991 8.36999L2.78989 11.86Z" fill="#292D32"/>
<path d="M18.77 17.25C18.3 17.25 17.86 17.07 17.52 16.73L14.04 13.25C13.71 12.92 13.52 12.47 13.52 12C13.52 11.53 13.7 11.08 14.04 10.75L17.51 7.27C17.89 6.89 18.42 6.69999 18.95 6.75999C19.49 6.81999 19.96 7.11 20.25 7.57L22.46 11.05C22.83 11.63 22.83 12.37 22.46 12.95L20.25 16.43C19.96 16.89 19.49 17.18 18.95 17.24C18.9 17.24 18.83 17.25 18.77 17.25ZM18.77 8.25999C18.72 8.25999 18.65 8.26999 18.58 8.33999L15.1 11.82C15.03 11.89 15.02 11.97 15.02 12.01C15.02 12.05 15.03 12.13 15.1 12.2L18.58 15.68C18.66 15.76 18.75 15.76 18.8 15.76C18.85 15.75 18.94 15.73 19 15.64L21.21 12.16C21.27 12.07 21.27 11.96 21.21 11.87L19 8.38999C18.94 8.29999 18.85 8.27 18.8 8.27C18.79 8.26 18.78 8.25999 18.77 8.25999Z" fill="#292D32"/>
</svg>
