<svg width="24" height="24" viewBox="0 0 24 24" fill="none" xmlns="http://www.w3.org/2000/svg">
<path d="M17.28 9.89001C17.12 9.89001 16.9499 9.86001 16.7899 9.79001L12.0199 7.67001L7.19994 9.79001C6.69994 10.01 6.10995 9.87001 5.76995 9.43001C5.42995 8.99001 5.43991 8.38001 5.79991 7.96001L10.7999 1.85001C11.4099 1.10001 12.5899 1.10001 13.2099 1.85001L18.2099 7.96001C18.5599 8.39001 18.5699 8.99001 18.2399 9.43001C17.9899 9.72001 17.64 9.89001 17.28 9.89001ZM11.9999 6.16001C12.2099 6.16001 12.4299 6.20001 12.6299 6.29001L16.2099 7.88001L12.0399 2.79001L7.80992 7.87001L11.3699 6.29001C11.5699 6.20001 11.7799 6.16001 11.9999 6.16001Z" fill="#292D32"/>
<path d="M12 22.75C11.54 22.75 11.1 22.54 10.8 22.16L5.79999 16.05C5.44999 15.62 5.44002 15.02 5.77002 14.58C6.11002 14.14 6.69001 13.99 7.20001 14.21L11.98 16.33L16.8 14.21C17.31 13.99 17.89 14.14 18.23 14.58C18.56 15.02 18.55 15.62 18.2 16.05L13.2 22.16C12.9 22.54 12.46 22.75 12 22.75ZM7.78998 16.12L11.95 21.21L16.18 16.13L12.63 17.71C12.23 17.89 11.77 17.89 11.37 17.71L7.78998 16.12Z" fill="#292D32"/>
<path d="M12 15.37C11.88 15.37 11.77 15.34 11.67 15.29L6.41998 12.67C6.16998 12.54 6 12.28 6 12C6 11.72 6.15998 11.46 6.41998 11.33L11.67 8.71C11.88 8.6 12.13 8.6 12.34 8.71L17.59 11.33C17.84 11.46 18.01 11.72 18.01 12C18.01 12.28 17.85 12.54 17.59 12.67L12.34 15.29C12.23 15.35 12.12 15.37 12 15.37ZM8.42999 12L12 13.78L15.57 12L12 10.22L8.42999 12Z" fill="#292D32"/>
</svg>
