<svg width="24" height="24" viewBox="0 0 24 24" fill="none" xmlns="http://www.w3.org/2000/svg">
<path d="M6.45 22.75C6.04 22.75 5.7 22.41 5.7 22V2C5.7 1.59 6.04 1.25 6.45 1.25C6.86 1.25 7.2 1.59 7.2 2V22C7.2 22.41 6.86 22.75 6.45 22.75Z" fill="#292D32"/>
<path d="M6.95 17.75C6.67 17.75 6.41 17.6 6.28 17.33C6.1 16.96 6.25 16.51 6.62 16.33L14.92 12.23C16.14 11.6 16.83 10.84 16.8 10.13C16.77 9.43999 16.03 8.72999 14.76 8.18999L6.66 4.68999C6.27 4.51999 6.1 4.07999 6.26 3.69999C6.42 3.31999 6.87 3.13999 7.25 3.30999L15.35 6.80999C17.85 7.86999 18.27 9.30999 18.3 10.07C18.35 11.4 17.39 12.64 15.6 13.56L7.29 17.67C7.18 17.73 7.06 17.75 6.95 17.75Z" fill="#292D32"/>
</svg>
