<svg width="24" height="24" viewBox="0 0 24 24" fill="none" xmlns="http://www.w3.org/2000/svg">
<path d="M18.36 22.75H5.58999C4.06999 22.75 2.67999 21.98 1.87999 20.68C1.07999 19.38 1.00999 17.8 1.68999 16.43L3.40999 12.98C3.96999 11.86 4.86999 11.16 5.87999 11.05C6.88999 10.94 7.91999 11.44 8.69999 12.41L8.91999 12.69C9.35999 13.23 9.86999 13.52 10.37 13.47C10.87 13.43 11.33 13.07 11.67 12.46L13.56 9.04999C14.34 7.63999 15.38 6.90999 16.51 6.95999C17.63 7.01999 18.59 7.85999 19.23 9.33999L22.36 16.65C22.94 18 22.8 19.54 21.99 20.77C21.19 22.02 19.83 22.75 18.36 22.75ZM6.15999 12.55C6.11999 12.55 6.07999 12.55 6.03999 12.56C5.53999 12.61 5.07999 13.01 4.74999 13.66L3.02999 17.11C2.57999 18 2.62999 19.05 3.14999 19.9C3.66999 20.75 4.58999 21.26 5.58999 21.26H18.35C19.33 21.26 20.2 20.79 20.74 19.97C21.28 19.15 21.37 18.17 20.98 17.27L17.85 9.95999C17.47 9.05999 16.94 8.50999 16.43 8.48999C15.96 8.45999 15.35 8.95999 14.87 9.80999L12.98 13.22C12.4 14.26 11.49 14.91 10.5 15C9.50999 15.08 8.49999 14.6 7.74999 13.66L7.52999 13.38C7.10999 12.83 6.62999 12.55 6.15999 12.55Z" fill="#292D32"/>
<path d="M6.96997 8.75C4.90997 8.75 3.21997 7.07 3.21997 5C3.21997 2.93 4.89997 1.25 6.96997 1.25C9.03997 1.25 10.72 2.93 10.72 5C10.72 7.07 9.03997 8.75 6.96997 8.75ZM6.96997 2.75C5.72997 2.75 4.71997 3.76 4.71997 5C4.71997 6.24 5.72997 7.25 6.96997 7.25C8.20997 7.25 9.21997 6.24 9.21997 5C9.21997 3.76 8.20997 2.75 6.96997 2.75Z" fill="#292D32"/>
</svg>
