<svg width="24" height="24" viewBox="0 0 24 24" fill="none" xmlns="http://www.w3.org/2000/svg">
<path d="M12 22.43C11.52 22.43 11.04 22.3 10.61 22.05L4.10999 18.23C3.26999 17.74 2.75 16.83 2.75 15.86V8.15C2.75 7.18 3.26999 6.27001 4.10999 5.78001L10.61 1.96001C11.47 1.45001 12.54 1.45001 13.4 1.96001L19.9 5.78001C20.74 6.27001 21.26 7.18 21.26 8.15V15.86C21.26 16.83 20.74 17.74 19.9 18.23L13.4 22.05C12.96 22.3 12.48 22.43 12 22.43ZM11.37 3.24001L4.87 7.06001C4.49 7.28001 4.25 7.70001 4.25 8.14001V15.85C4.25 16.29 4.49 16.7 4.87 16.93L11.37 20.75C11.76 20.98 12.25 20.98 12.64 20.75L19.14 16.93C19.52 16.71 19.76 16.29 19.76 15.85V8.14001C19.76 7.70001 19.52 7.29001 19.14 7.06001L12.64 3.24001C12.24 3.01001 11.76 3.01001 11.37 3.24001Z" fill="#292D32"/>
<path d="M12 18.75C11.87 18.75 11.73 18.71 11.61 18.64L6.60999 15.64C6.24999 15.43 6.13998 14.97 6.34998 14.61C6.55998 14.25 7.02 14.14 7.38 14.35L11.99 17.12L15.53 14.99L6.59998 9.62999C6.36998 9.48999 6.23999 9.24999 6.23999 8.98999C6.23999 8.72999 6.37998 8.48 6.59998 8.35L11.6 5.35C11.84 5.21 12.14 5.21 12.37 5.35L17.37 8.35C17.73 8.56 17.84 9.01999 17.63 9.37999C17.42 9.72999 16.96 9.84999 16.6 9.63999L11.99 6.86998L8.45001 8.99999L17.38 14.36C17.61 14.5 17.74 14.74 17.74 15C17.74 15.26 17.6 15.51 17.38 15.64L12.38 18.64C12.27 18.71 12.13 18.75 12 18.75Z" fill="#292D32"/>
<path d="M9.49997 12.75C9.30997 12.75 9.11994 12.68 8.96994 12.53C8.67994 12.24 8.67994 11.76 8.96994 11.47L10.9699 9.47C11.2599 9.18 11.74 9.18 12.03 9.47C12.32 9.76 12.32 10.24 12.03 10.53L10.03 12.53C9.88 12.68 9.68997 12.75 9.49997 12.75Z" fill="#292D32"/>
<path d="M12.5 14.75C12.31 14.75 12.1199 14.68 11.9699 14.53C11.6799 14.24 11.6799 13.76 11.9699 13.47L13.9699 11.47C14.2599 11.18 14.74 11.18 15.03 11.47C15.32 11.76 15.32 12.24 15.03 12.53L13.03 14.53C12.88 14.68 12.69 14.75 12.5 14.75Z" fill="#292D32"/>
</svg>
