<svg width="24" height="24" viewBox="0 0 24 24" fill="none" xmlns="http://www.w3.org/2000/svg">
<path d="M15.6699 17.89H7.96992C7.72992 17.89 7.50992 17.78 7.36992 17.59C7.22992 17.4 7.17992 17.16 7.24992 16.93L10.3299 6.15C10.4199 5.83 10.7199 5.61 11.0499 5.61H14.0899C14.3199 5.61 14.5399 5.72 14.6899 5.9C14.8299 6.09 14.8799 6.33 14.8199 6.55L12.9499 13.55H16.1999C16.4199 13.55 16.6299 13.65 16.7799 13.82C16.9199 13.99 16.9799 14.22 16.9399 14.43L16.4299 17.27C16.3399 17.63 16.0299 17.89 15.6699 17.89ZM8.95991 16.39H15.0399L15.2799 15.05H11.9599C11.7299 15.05 11.5099 14.94 11.3599 14.76C11.2199 14.57 11.1699 14.33 11.2299 14.11L13.0999 7.11H11.5999L8.95991 16.39Z" fill="#292D32"/>
<path d="M7.32014 13.27C6.97014 13.27 6.66013 13.02 6.59013 12.67C6.51013 12.26 6.77012 11.87 7.18012 11.79L14.8801 10.25C15.2801 10.17 15.6801 10.43 15.7601 10.84C15.8401 11.25 15.5801 11.64 15.1701 11.72L7.47013 13.26C7.42013 13.27 7.37014 13.27 7.32014 13.27Z" fill="#292D32"/>
<path d="M12 22.75C6.07 22.75 1.25 17.93 1.25 12C1.25 6.07 6.07 1.25 12 1.25C17.93 1.25 22.75 6.07 22.75 12C22.75 17.93 17.93 22.75 12 22.75ZM12 2.75C6.9 2.75 2.75 6.9 2.75 12C2.75 17.1 6.9 21.25 12 21.25C17.1 21.25 21.25 17.1 21.25 12C21.25 6.9 17.1 2.75 12 2.75Z" fill="#292D32"/>
</svg>
