<svg width="24" height="24" viewBox="0 0 24 24" fill="none" xmlns="http://www.w3.org/2000/svg">
<path d="M12 22.72C6.09 22.72 1.28 17.91 1.28 12C1.28 6.09003 6.09 1.28003 12 1.28003C14.65 1.28003 17.19 2.26003 19.15 4.03003C21.42 6.04003 22.72 8.95003 22.72 12C22.72 15.05 21.42 17.96 19.14 19.98C17.19 21.75 14.65 22.72 12 22.72ZM12 2.78003C6.91 2.78003 2.78 6.92003 2.78 12C2.78 17.08 6.92 21.22 12 21.22C14.28 21.22 16.46 20.38 18.15 18.85C20.11 17.11 21.23 14.62 21.23 11.99C21.23 9.36003 20.11 6.87003 18.16 5.14003C16.46 3.62003 14.28 2.78003 12 2.78003Z" fill="#292D32"/>
<path d="M10.44 18.91C10.07 18.91 9.68 18.83 9.3 18.68C6.56 17.58 4.78 14.95 4.78 12C4.78 9.05001 6.55 6.42001 9.3 5.32001C10.17 4.97001 11.05 5.02001 11.71 5.46001C12.35 5.89001 12.71 6.65001 12.73 7.60001V16.39V16.4C12.72 17.35 12.36 18.12 11.71 18.54C11.34 18.79 10.9 18.91 10.44 18.91ZM10.44 6.59001C10.26 6.59001 10.06 6.63001 9.86 6.71001C7.68 7.58001 6.28 9.66001 6.28 12C6.28 14.34 7.68 16.42 9.86 17.29C10.26 17.45 10.64 17.45 10.88 17.3C11.16 17.11 11.22 16.7 11.23 16.39V7.61001C11.23 7.31001 11.16 6.89001 10.88 6.70001C10.76 6.63001 10.61 6.59001 10.44 6.59001Z" fill="#292D32"/>
</svg>
