<svg width="24" height="24" viewBox="0 0 24 24" fill="none" xmlns="http://www.w3.org/2000/svg">
<path d="M10.06 21.58C9.06001 21.58 8.05001 20.9 6.70001 19.56L3.24001 16.1C0.300006 13.16 0.600006 12.03 3.24001 9.37995L8.81001 3.79995C10.78 1.82995 12.41 0.679952 15.53 3.79995L18.99 7.25995C21.8 10.07 21.12 11.85 18.99 13.98L13.42 19.55C12.07 20.9 11.07 21.58 10.06 21.58ZM4.30001 15.03L7.76001 18.49C9.88001 20.61 10.23 20.62 12.36 18.49L17.93 12.92C19.6 11.25 20.03 10.42 17.93 8.31995L14.47 4.85995C12.28 2.66995 11.62 3.11995 9.87001 4.85995L4.30001 10.43C2.18001 12.56 2.00001 12.73 4.30001 15.03Z" fill="#292D32"/>
<path d="M20.14 21.46C19 21.46 18.1 21.02 17.66 20.25C17.22 19.48 17.31 18.48 17.9 17.5L18.56 16.41C18.95 15.77 19.52 15.4 20.14 15.4C20.76 15.4 21.34 15.77 21.72 16.41L22.38 17.5C22.97 18.48 23.05 19.48 22.62 20.25C22.19 21.02 21.27 21.46 20.14 21.46ZM20.14 16.9C20.09 16.9 19.97 16.98 19.84 17.18L19.18 18.27C18.88 18.77 18.8 19.22 18.96 19.51C19.12 19.8 19.55 19.96 20.13 19.96C20.71 19.96 21.14 19.8 21.3 19.51C21.46 19.22 21.38 18.78 21.08 18.27L20.42 17.18C20.31 16.97 20.19 16.9 20.14 16.9Z" fill="#292D32"/>
<path d="M2.00001 12.99C1.67001 12.99 1.37001 12.77 1.28001 12.44C1.17001 12.04 1.41001 11.63 1.81001 11.52C7.48001 9.97999 13.49 9.92999 19.19 11.39L19.69 11.52C20.09 11.62 20.33 12.03 20.23 12.43C20.13 12.83 19.72 13.07 19.32 12.97L18.82 12.84C13.37 11.44 7.63001 11.49 2.21001 12.97C2.13001 12.99 2.06001 12.99 2.00001 12.99Z" fill="#292D32"/>
</svg>
