<svg width="24" height="24" viewBox="0 0 24 24" fill="none" xmlns="http://www.w3.org/2000/svg">
<path d="M14.5399 11.37C13.0999 11.37 11.9299 10.2 11.9299 8.76001V4.12C11.9299 2.68 13.0999 1.51001 14.5399 1.51001C15.9799 1.51001 17.1499 2.68 17.1499 4.12V8.76001C17.1499 10.2 15.9799 11.37 14.5399 11.37ZM14.5399 3.01001C13.9299 3.01001 13.4299 3.51 13.4299 4.12V8.76001C13.4299 9.37001 13.9299 9.87 14.5399 9.87C15.1499 9.87 15.6499 9.37001 15.6499 8.76001V4.12C15.6499 3.51 15.1499 3.01001 14.5399 3.01001Z" fill="#292D32"/>
<path d="M20.1801 11.37H18.6101C18.2001 11.37 17.8601 11.03 17.8601 10.62V9.04999C17.8601 7.76999 18.9001 6.73001 20.1801 6.73001C21.4601 6.73001 22.5001 7.76999 22.5001 9.04999C22.5001 10.33 21.4601 11.37 20.1801 11.37ZM19.3701 9.87H20.1901C20.6401 9.87 21.0101 9.49999 21.0101 9.04999C21.0101 8.59999 20.6401 8.23001 20.1901 8.23001C19.7401 8.23001 19.3701 8.59999 19.3701 9.04999V9.87Z" fill="#292D32"/>
<path d="M8.5 11.83H3.86C2.42 11.83 1.25 10.66 1.25 9.22C1.25 7.78 2.42 6.60999 3.86 6.60999H8.5C9.94 6.60999 11.11 7.78 11.11 9.22C11.11 10.66 9.94 11.83 8.5 11.83ZM3.86 8.12C3.25 8.12 2.75 8.62001 2.75 9.23001C2.75 9.84001 3.25 10.34 3.86 10.34H8.5C9.11 10.34 9.61 9.84001 9.61 9.23001C9.61 8.62001 9.11 8.12 8.5 8.12H3.86Z" fill="#292D32"/>
<path d="M10.36 5.88H8.78996C7.50996 5.88 6.46997 4.84 6.46997 3.56C6.46997 2.28 7.50996 1.23999 8.78996 1.23999C10.07 1.23999 11.11 2.28 11.11 3.56V5.13C11.11 5.55 10.77 5.88 10.36 5.88ZM8.78996 2.75C8.33996 2.75 7.96997 3.12001 7.96997 3.57001C7.96997 4.02001 8.33996 4.39001 8.78996 4.39001H9.60997V3.57001C9.60997 3.12001 9.23996 2.75 8.78996 2.75Z" fill="#292D32"/>
<path d="M9.43005 22.52C7.99005 22.52 6.82007 21.35 6.82007 19.91V15.27C6.82007 13.83 7.99005 12.66 9.43005 12.66C10.8701 12.66 12.0401 13.83 12.0401 15.27V19.91C12.0401 21.35 10.8701 22.52 9.43005 22.52ZM9.43005 14.16C8.82005 14.16 8.32007 14.66 8.32007 15.27V19.91C8.32007 20.52 8.82005 21.02 9.43005 21.02C10.0401 21.02 10.5401 20.52 10.5401 19.91V15.27C10.5401 14.65 10.0401 14.16 9.43005 14.16Z" fill="#292D32"/>
<path d="M3.78996 17.29C2.50996 17.29 1.46997 16.25 1.46997 14.97C1.46997 13.69 2.50996 12.65 3.78996 12.65H5.35997C5.76997 12.65 6.10997 12.99 6.10997 13.4V14.97C6.10997 16.25 5.06996 17.29 3.78996 17.29ZM3.78996 14.16C3.33996 14.16 2.96997 14.53 2.96997 14.98C2.96997 15.43 3.33996 15.8 3.78996 15.8C4.23996 15.8 4.60997 15.43 4.60997 14.98V14.16H3.78996Z" fill="#292D32"/>
<path d="M20.1101 17.41H15.4701C14.0301 17.41 12.8601 16.24 12.8601 14.8C12.8601 13.36 14.0301 12.19 15.4701 12.19H20.1101C21.5501 12.19 22.7201 13.36 22.7201 14.8C22.7201 16.24 21.5501 17.41 20.1101 17.41ZM15.4701 13.69C14.8601 13.69 14.3601 14.19 14.3601 14.8C14.3601 15.41 14.8601 15.91 15.4701 15.91H20.1101C20.7201 15.91 21.2201 15.41 21.2201 14.8C21.2201 14.19 20.7201 13.69 20.1101 13.69H15.4701Z" fill="#292D32"/>
<path d="M15.1801 22.73C13.9001 22.73 12.8601 21.69 12.8601 20.41V18.84C12.8601 18.43 13.2001 18.09 13.6101 18.09H15.1801C16.4601 18.09 17.5001 19.13 17.5001 20.41C17.5001 21.69 16.4501 22.73 15.1801 22.73ZM14.3601 19.59V20.41C14.3601 20.86 14.7301 21.23 15.1801 21.23C15.6301 21.23 16.0001 20.86 16.0001 20.41C16.0001 19.96 15.6301 19.59 15.1801 19.59H14.3601Z" fill="#292D32"/>
</svg>
