<svg width="24" height="24" viewBox="0 0 24 24" fill="none" xmlns="http://www.w3.org/2000/svg">
<path d="M4.03998 14.94C3.70998 14.94 3.41001 14.72 3.32001 14.39C3.11001 13.61 3 12.81 3 12C3 7.04 7.04 3 12 3C13.69 3 15.33 3.47 16.75 4.36C17.1 4.58 17.21 5.04 16.99 5.39C16.77 5.74 16.31 5.85 15.96 5.63C14.77 4.89 13.4 4.5 12 4.5C7.86 4.5 4.5 7.86 4.5 12C4.5 12.68 4.59002 13.35 4.77002 13.99C4.88002 14.39 4.63999 14.8 4.23999 14.91C4.17999 14.93 4.10998 14.94 4.03998 14.94Z" fill="#292D32"/>
<path d="M12.0001 21C10.3001 21 8.65003 20.52 7.22003 19.63C6.87003 19.41 6.76004 18.95 6.98004 18.6C7.20004 18.25 7.66007 18.14 8.01007 18.36C9.20007 19.11 10.5801 19.5 11.9901 19.5C16.1301 19.5 19.4901 16.14 19.4901 12C19.4901 11.27 19.3801 10.54 19.1801 9.85001C19.0601 9.45001 19.2901 9.04001 19.6801 8.92001C20.0801 8.80001 20.49 9.03001 20.61 9.42001C20.86 10.25 20.9901 11.12 20.9901 12C21.0001 16.96 16.9601 21 12.0001 21Z" fill="#292D32"/>
<path d="M2.00014 16.75C1.74014 16.75 1.48017 16.61 1.34017 16.36C1.14017 16 1.27016 15.54 1.64016 15.34L21.6402 4.33998C22.0002 4.13998 22.4601 4.26998 22.6601 4.63998C22.8601 4.99998 22.7301 5.45999 22.3601 5.65999L2.36013 16.66C2.25013 16.72 2.12014 16.75 2.00014 16.75Z" fill="#292D32"/>
<path d="M2.00014 20.25C1.74014 20.25 1.48017 20.11 1.34017 19.86C1.14017 19.5 1.27016 19.04 1.64016 18.84L21.6402 7.83998C22.0002 7.63998 22.4601 7.76998 22.6601 8.13998C22.8601 8.49998 22.7301 8.95999 22.3601 9.15999L2.36013 20.16C2.25013 20.22 2.12014 20.25 2.00014 20.25Z" fill="#292D32"/>
</svg>
