<svg width="24" height="24" viewBox="0 0 24 24" fill="none" xmlns="http://www.w3.org/2000/svg">
<path d="M17 21H10.28C8.66 21 7.11 20.31 6.03 19.12L2.5 15.24C0.819998 13.4 0.819998 10.62 2.5 8.77L6.03 4.89C7.11 3.69 8.66 3 10.28 3H17C20.17 3 22.75 5.58 22.75 8.75V15.25C22.75 18.42 20.17 21 17 21ZM10.28 4.5C9.09 4.5 7.94 5.01 7.14 5.89L3.6 9.78C2.45 11.05 2.45 12.96 3.6 14.23L7.13 18.11C7.93 18.99 9.08 19.5 10.27 19.5H17C19.34 19.5 21.25 17.59 21.25 15.25V8.75C21.25 6.41 19.34 4.5 17 4.5H10.28Z" fill="#292D32"/>
<path d="M16 15.22C15.81 15.22 15.62 15.15 15.47 15L10.53 10.05C10.24 9.75999 10.24 9.27999 10.53 8.98999C10.82 8.69999 11.3 8.69999 11.59 8.98999L16.53 13.94C16.82 14.23 16.82 14.71 16.53 15C16.38 15.15 16.19 15.22 16 15.22Z" fill="#292D32"/>
<path d="M11.06 15.22C10.87 15.22 10.68 15.15 10.53 15C10.24 14.71 10.24 14.23 10.53 13.94L15.47 9C15.76 8.71 16.24 8.71 16.53 9C16.82 9.29 16.82 9.77 16.53 10.06L11.59 15C11.44 15.15 11.25 15.22 11.06 15.22Z" fill="#292D32"/>
</svg>
