<svg width="24" height="24" viewBox="0 0 24 24" fill="none" xmlns="http://www.w3.org/2000/svg">
<path d="M22 3.78H2C1.59 3.78 1.25 3.44 1.25 3.03C1.25 2.62 1.59 2.28 2 2.28H22C22.41 2.28 22.75 2.62 22.75 3.03C22.75 3.44 22.41 3.78 22 3.78Z" fill="#292D32"/>
<path d="M11.9999 21.72C11.3599 21.72 10.7799 21.4 10.4299 20.87L2.4699 8.48C2.0999 7.91 2.0799 7.18 2.3999 6.58C2.7299 5.98 3.3499 5.61 4.0299 5.61H19.9599C20.6399 5.61 21.2699 5.98 21.5899 6.58C21.9199 7.18 21.8899 7.91 21.5199 8.48L13.5599 20.87C13.2199 21.4 12.6399 21.72 11.9999 21.72ZM4.03991 7.11C3.84991 7.11 3.7499 7.24 3.7199 7.3C3.6899 7.36 3.62991 7.51 3.72991 7.67L11.6899 20.06C11.7799 20.2 11.9199 20.23 11.9899 20.23C12.0599 20.23 12.1999 20.21 12.2899 20.06L20.2499 7.67C20.3499 7.51 20.2899 7.36 20.2599 7.3C20.2299 7.24 20.1399 7.11 19.9399 7.11H4.03991Z" fill="#292D32"/>
</svg>
