<svg width="24" height="24" viewBox="0 0 24 24" fill="none" xmlns="http://www.w3.org/2000/svg">
<path d="M13.88 20.59C13.09 20.59 12.22 20.31 11.35 19.76L8.42996 17.93C8.22996 17.81 7.99996 17.74 7.76996 17.74H6.32996C3.90996 17.74 2.57996 16.41 2.57996 13.99V9.99C2.57996 7.57 3.90996 6.24 6.32996 6.24H7.75996C7.98996 6.24 8.21996 6.17 8.41996 6.05L11.34 4.22C12.8 3.31 14.22 3.14 15.34 3.76C16.46 4.38 17.07 5.67 17.07 7.4V16.57C17.07 18.29 16.45 19.59 15.34 20.21C14.9 20.47 14.41 20.59 13.88 20.59ZM6.32996 7.75C4.74996 7.75 4.07996 8.42 4.07996 10V14C4.07996 15.58 4.74996 16.25 6.32996 16.25H7.75996C8.27996 16.25 8.77996 16.39 9.21996 16.67L12.14 18.5C13.11 19.1 14.01 19.26 14.62 18.92C15.23 18.58 15.58 17.73 15.58 16.6V7.41C15.58 6.27 15.23 5.42 14.62 5.09C14.01 4.75 13.11 4.9 12.14 5.51L9.21996 7.33C8.77996 7.61 8.27996 7.75 7.75996 7.75H6.32996Z" fill="#292D32"/>
<path d="M19.33 16.75C19.17 16.75 19.02 16.7 18.88 16.6C18.55 16.35 18.48 15.88 18.73 15.55C20.3 13.46 20.3 10.54 18.73 8.45C18.48 8.12 18.55 7.65 18.88 7.4C19.21 7.15 19.68 7.22 19.93 7.55C21.9 10.17 21.9 13.83 19.93 16.45C19.79 16.65 19.56 16.75 19.33 16.75Z" fill="#292D32"/>
</svg>
