<svg width="40" height="38" viewBox="0 0 40 38" fill="none" xmlns="http://www.w3.org/2000/svg"><path fill-rule="evenodd" clip-rule="evenodd" d="M20 0.25C8.95 0.25 0 8.85286 0 19.4743C0 27.981 5.725 35.1661 13.675 37.7133C14.675 37.8815 15.05 37.3048 15.05 36.8001C15.05 36.3435 15.025 34.8296 15.025 33.2196C10 34.1087 8.7 32.0421 8.3 30.9608C8.075 30.4081 7.1 28.7019 6.25 28.2453C5.55 27.8849 4.55 26.9957 6.225 26.9717C7.8 26.9477 8.925 28.3655 9.3 28.9422C11.1 31.8499 13.975 31.0328 15.125 30.5282C15.3 29.2786 15.825 28.4376 16.4 27.957C11.95 27.4764 7.3 25.8183 7.3 18.465C7.3 16.3743 8.075 14.6442 9.35 13.2985C9.15 12.8179 8.45 10.8474 9.55 8.20404C9.55 8.20404 11.225 7.6994 15.05 10.1745C16.65 9.74198 18.35 9.5257 20.05 9.5257C21.75 9.5257 23.45 9.74198 25.05 10.1745C28.875 7.67537 30.55 8.20404 30.55 8.20404C31.65 10.8474 30.95 12.8179 30.75 13.2985C32.025 14.6442 32.8 16.3503 32.8 18.465C32.8 25.8423 28.125 27.4764 23.675 27.957C24.4 28.5577 25.025 29.7112 25.025 31.5135C25.025 34.0847 25 36.1513 25 36.8001C25 37.3048 25.375 37.9055 26.375 37.7133C30.3454 36.4249 33.7954 33.9722 36.2396 30.7003C38.6838 27.4285 39.9989 23.5022 40 19.4743C40 8.85286 31.05 0.25 20 0.25Z" fill="white"/></svg>